<svg xmlns="http://www.w3.org/2000/svg" width="10" height="10" viewBox="0 0 10 10">
    <g fill="none" fill-rule="evenodd">
        <g fill="#6B7384">
            <g>
                <path d="M18.76 15.13c.173-.173.455-.173.629 0L23 18.742l3.611-3.612c.174-.173.456-.173.63 0l.629.63c.173.173.173.455 0 .629L24.258 20l3.612 3.611c.173.174.173.456 0 .63l-.63.629c-.173.173-.455.173-.629 0L23 21.258l-3.611 3.612c-.174.173-.456.173-.63 0l-.629-.63c-.173-.173-.173-.455 0-.629L21.742 20l-3.612-3.611c-.173-.174-.173-.456 0-.63l.63-.629z" transform="translate(-327 -30) translate(309 15)"/>
            </g>
        </g>
    </g>
</svg>
