<svg version="1.1" id="L3" xmlns="http://www.w3.org/2000/svg" xmlns:xlink="http://www.w3.org/1999/xlink" x="0px" y="0px"
    viewBox="0 0 100 100" enable-background="new 0 0 0 0" xml:space="preserve">
    <circle fill="none" stroke="#2143B9" stroke-width="4" cx="50" cy="50" r="44" style="opacity:0.5;"/>
    <circle fill="#fff" stroke="#2143B9" stroke-width="3" cx="8" cy="54" r="6" >
        <animateTransform
        attributeName="transform"
        dur="2s"
        type="rotate"
        from="0 50 48"
        to="360 50 52"
        repeatCount="indefinite" 
        />
        
    </circle>
    <g transform="matrix(3.76394,0,0,3.76394,-2373.98,-9081.32)">
        <path d="M649.195,2421.88C649.363,2421.76 649.596,2421.8 649.715,2421.97C651.685,2424.75 651.36,2428.53 648.944,2430.95C647.623,2432.26 645.866,2432.99 643.997,2432.99C642.645,2432.99 641.347,2432.61 640.221,2431.89L639.964,2431.72L639.602,2431.46L649.146,2421.92C649.161,2421.9 649.177,2421.89 649.195,2421.88ZM643.995,2419C645.458,2419 646.858,2419.45 648.044,2420.29L648.091,2420.33C648.216,2420.45 648.234,2420.64 648.145,2420.79L648.091,2420.86L638.857,2430.09C638.842,2430.11 638.827,2430.12 638.809,2430.13C638.641,2430.25 638.408,2430.21 638.289,2430.04C637.342,2428.71 636.892,2427.08 637.022,2425.44C637.153,2423.78 637.872,2422.22 639.049,2421.05C640.37,2419.73 642.127,2419 643.996,2419L643.995,2419Z" style="fill:rgb(40,46,76);"/>
    </g>
</svg>
